<svg width="40" height="40" viewBox="0 0 40 40" fill="none" xmlns="http://www.w3.org/2000/svg">
<path d="M7.82272 26.3235L7.82282 26.3233C8.26132 25.6089 8.83876 25.0695 9.56007 24.6957C11.2494 23.8514 12.9629 23.2192 14.7012 22.7977C16.4403 22.377 18.2063 22.1667 20 22.1667C21.7937 22.1667 23.5597 22.377 25.2989 22.7977C27.0371 23.2192 28.7507 23.8514 30.44 24.6957C31.1613 25.0695 31.7387 25.6089 32.1772 26.3233L32.1773 26.3235C32.6148 27.0357 32.8334 27.8132 32.8334 28.6667V32.8334H7.16669V28.6667C7.16669 27.8132 7.38522 27.0357 7.82272 26.3235ZM20 19.5001C18.3003 19.5001 16.8578 18.9007 15.6452 17.6882C14.4327 16.4757 13.8334 15.0331 13.8334 13.3334C13.8334 11.6337 14.4327 10.1912 15.6452 8.97864C16.8578 7.7661 18.3003 7.16675 20 7.16675C21.6997 7.16675 23.1423 7.7661 24.3548 8.97864C25.5673 10.1912 26.1667 11.6337 26.1667 13.3334C26.1667 15.0331 25.5673 16.4757 24.3548 17.6882C23.1423 18.9007 21.6997 19.5001 20 19.5001Z" stroke="black"/>
</svg>
